<?xml version="1.0" encoding="utf-8"?>
<svg viewBox="0 0 500 500" xmlns="http://www.w3.org/2000/svg">
  <g transform="matrix(3.374785, 0, 0, 3.374785, -587.691895, -300.39502)" style="filter: none;">
    <title>O</title>
    <circle style="stroke-width: 7px; stroke: rgb(0, 0, 0); paint-order: fill markers;" cx="125.071" cy="138.222" r="57.042" transform="matrix(0.991042, 0, 0, 0.98219, 124.270203, 27.330124)" />
    <g style="">
      <path d="M 271.284 214.463 L 246.873 171.422 L 271.284 214.463 M 247.301 171.208 L 265.288 143.584 L 247.301 171.208 M 265.288 143.156 L 237.022 109.965 L 265.288 143.156 M 263.575 142.728 L 218.821 147.225 L 263.575 142.728 M 219.249 147.867 L 232.311 194.763 L 219.249 147.867 M 232.097 194.977 L 246.873 171.422 L 232.097 194.977 M 247.087 171.85 L 284.132 155.79 L 247.087 171.85 M 284.132 155.79 L 292.269 132.449 L 284.132 155.79 M 284.346 155.148 L 291.413 195.834 L 284.346 155.148 M 233.596 194.12 L 211.326 207.183 L 233.596 194.12 M 219.463 146.797 L 220.106 113.761 L 219.463 146.797 M 266.145 142.514 L 286.488 126.454 L 266.145 142.514 M 218.393 147.653 L 210.47 173.992 L 218.393 147.653 M 210.47 173.992 L 232.311 194.335 L 210.47 173.992 M 209.399 174.206 L 198.05 179.988 L 209.399 174.206 M 222.55 146.529 C 222.55 148.447 220.995 150.002 219.077 150.002 C 217.159 150.002 215.604 148.447 215.604 146.529 C 215.604 144.611 217.159 143.056 219.077 143.056 C 220.995 143.056 222.55 144.611 222.55 146.529 M 267.388 142.375 C 267.388 144.293 265.833 145.848 263.915 145.848 C 261.997 145.848 260.442 144.293 260.442 142.375 C 260.442 140.457 261.997 138.902 263.915 138.902 C 265.833 138.902 267.388 140.457 267.388 142.375 M 286.345 155.581 C 286.345 157.499 284.79 159.054 282.872 159.054 C 280.954 159.054 279.399 157.499 279.399 155.581 C 279.399 153.663 280.954 152.108 282.872 152.108 C 284.79 152.108 286.345 153.663 286.345 155.581 M 250.773 171.344 C 250.773 173.262 249.218 174.817 247.3 174.817 C 245.382 174.817 243.827 173.262 243.827 171.344 C 243.827 169.426 245.382 167.871 247.3 167.871 C 249.218 167.871 250.773 169.426 250.773 171.344 M 235.436 193.497 C 235.436 195.415 233.881 196.97 231.963 196.97 C 230.045 196.97 228.49 195.415 228.49 193.497 C 228.49 191.579 230.045 190.024 231.963 190.024 C 233.881 190.024 235.436 191.579 235.436 193.497 M 213.709 174.113 C 213.709 176.031 212.154 177.586 210.236 177.586 C 208.318 177.586 206.763 176.031 206.763 174.113 C 206.763 172.195 208.318 170.64 210.236 170.64 C 212.154 170.64 213.709 172.195 213.709 174.113" style="stroke-linecap: round; stroke-miterlimit: 1; fill: rgb(255, 255, 255); stroke-opacity: 0.62; stroke: rgb(255, 255, 255); filter: none;" />
    </g>
    <circle style="stroke-width: 7px; stroke: rgb(0, 0, 0); paint-order: fill markers; fill: none;" cx="125.071" cy="138.222" r="57.042" transform="matrix(0.991042, 0, 0, 0.98219, 124.270203, 27.330124)" />
  </g>
</svg>